<mxfile host="app.diagrams.net" modified="2023-02-01T02:02:37.593Z" agent="5.0 (Windows NT 10.0; Win64; x64) AppleWebKit/537.36 (KHTML, like Gecko) Chrome/109.0.0.0 Safari/537.36" version="20.7.4" etag="ir7R8A37CwKbxJY26B-5" type="github">
  <diagram id="BqakaELUEztnUSssXJRi" name="第 1 页">
    <mxGraphModel dx="1415" dy="736" grid="1" gridSize="10" guides="1" tooltips="1" connect="1" arrows="1" fold="1" page="1" pageScale="1" pageWidth="1200" pageHeight="1920" math="0" shadow="0">
      <root>
        <mxCell id="0" />
        <mxCell id="1" parent="0" />
        <mxCell id="xFAFlWkGNHVEwS1_7XCM-1" value="WSM" style="ellipse;whiteSpace=wrap;html=1;aspect=fixed;" vertex="1" parent="1">
          <mxGeometry x="110" y="170" width="100" height="100" as="geometry" />
        </mxCell>
        <mxCell id="xFAFlWkGNHVEwS1_7XCM-2" value="RN" style="ellipse;whiteSpace=wrap;html=1;aspect=fixed;" vertex="1" parent="1">
          <mxGeometry x="330" y="20" width="80" height="80" as="geometry" />
        </mxCell>
        <mxCell id="xFAFlWkGNHVEwS1_7XCM-3" value="京东淘宝" style="ellipse;whiteSpace=wrap;html=1;aspect=fixed;" vertex="1" parent="1">
          <mxGeometry x="320" y="180" width="80" height="80" as="geometry" />
        </mxCell>
        <mxCell id="xFAFlWkGNHVEwS1_7XCM-4" value="微商城" style="ellipse;whiteSpace=wrap;html=1;aspect=fixed;" vertex="1" parent="1">
          <mxGeometry x="320" y="329" width="80" height="80" as="geometry" />
        </mxCell>
        <mxCell id="xFAFlWkGNHVEwS1_7XCM-5" value="" style="endArrow=none;dashed=1;html=1;dashPattern=1 3;strokeWidth=2;rounded=0;entryX=0.025;entryY=0.625;entryDx=0;entryDy=0;entryPerimeter=0;exitX=1;exitY=0;exitDx=0;exitDy=0;" edge="1" parent="1" source="xFAFlWkGNHVEwS1_7XCM-1" target="xFAFlWkGNHVEwS1_7XCM-2">
          <mxGeometry width="50" height="50" relative="1" as="geometry">
            <mxPoint x="570" y="400" as="sourcePoint" />
            <mxPoint x="620" y="350" as="targetPoint" />
          </mxGeometry>
        </mxCell>
        <mxCell id="xFAFlWkGNHVEwS1_7XCM-6" value="" style="endArrow=none;dashed=1;html=1;dashPattern=1 3;strokeWidth=2;rounded=0;entryX=0;entryY=0.5;entryDx=0;entryDy=0;exitX=1;exitY=0.5;exitDx=0;exitDy=0;" edge="1" parent="1" source="xFAFlWkGNHVEwS1_7XCM-1" target="xFAFlWkGNHVEwS1_7XCM-3">
          <mxGeometry width="50" height="50" relative="1" as="geometry">
            <mxPoint x="205.35533905932743" y="194.64466094067257" as="sourcePoint" />
            <mxPoint x="342" y="80" as="targetPoint" />
          </mxGeometry>
        </mxCell>
        <mxCell id="xFAFlWkGNHVEwS1_7XCM-7" value="" style="endArrow=none;dashed=1;html=1;dashPattern=1 3;strokeWidth=2;rounded=0;entryX=-0.025;entryY=0.325;entryDx=0;entryDy=0;entryPerimeter=0;" edge="1" parent="1" source="xFAFlWkGNHVEwS1_7XCM-1" target="xFAFlWkGNHVEwS1_7XCM-4">
          <mxGeometry width="50" height="50" relative="1" as="geometry">
            <mxPoint x="215.35533905932743" y="204.64466094067257" as="sourcePoint" />
            <mxPoint x="352" y="90" as="targetPoint" />
          </mxGeometry>
        </mxCell>
        <mxCell id="xFAFlWkGNHVEwS1_7XCM-8" value="wms库存多方发货" style="text;html=1;align=center;verticalAlign=middle;resizable=0;points=[];autosize=1;strokeColor=none;fillColor=none;" vertex="1" parent="1">
          <mxGeometry x="230" y="170" width="120" height="30" as="geometry" />
        </mxCell>
        <mxCell id="xFAFlWkGNHVEwS1_7XCM-9" value="商品资源库&lt;br&gt;spu" style="ellipse;whiteSpace=wrap;html=1;aspect=fixed;" vertex="1" parent="1">
          <mxGeometry x="510" y="330" width="80" height="80" as="geometry" />
        </mxCell>
        <mxCell id="xFAFlWkGNHVEwS1_7XCM-10" value="" style="endArrow=none;dashed=1;html=1;dashPattern=1 3;strokeWidth=2;rounded=0;entryX=0;entryY=0.5;entryDx=0;entryDy=0;exitX=1;exitY=0.5;exitDx=0;exitDy=0;" edge="1" parent="1" source="xFAFlWkGNHVEwS1_7XCM-4" target="xFAFlWkGNHVEwS1_7XCM-9">
          <mxGeometry width="50" height="50" relative="1" as="geometry">
            <mxPoint x="570" y="400" as="sourcePoint" />
            <mxPoint x="620" y="350" as="targetPoint" />
          </mxGeometry>
        </mxCell>
        <mxCell id="xFAFlWkGNHVEwS1_7XCM-27" style="edgeStyle=orthogonalEdgeStyle;rounded=0;orthogonalLoop=1;jettySize=auto;html=1;" edge="1" parent="1" source="xFAFlWkGNHVEwS1_7XCM-11" target="xFAFlWkGNHVEwS1_7XCM-17">
          <mxGeometry relative="1" as="geometry" />
        </mxCell>
        <mxCell id="xFAFlWkGNHVEwS1_7XCM-11" value="店铺1&lt;br&gt;spu1" style="ellipse;whiteSpace=wrap;html=1;aspect=fixed;" vertex="1" parent="1">
          <mxGeometry x="680" y="220" width="80" height="80" as="geometry" />
        </mxCell>
        <mxCell id="xFAFlWkGNHVEwS1_7XCM-18" style="edgeStyle=orthogonalEdgeStyle;rounded=0;orthogonalLoop=1;jettySize=auto;html=1;entryX=0;entryY=0.638;entryDx=0;entryDy=0;entryPerimeter=0;" edge="1" parent="1" source="xFAFlWkGNHVEwS1_7XCM-12" target="xFAFlWkGNHVEwS1_7XCM-17">
          <mxGeometry relative="1" as="geometry" />
        </mxCell>
        <mxCell id="xFAFlWkGNHVEwS1_7XCM-12" value="店铺2&lt;br&gt;spu2" style="ellipse;whiteSpace=wrap;html=1;aspect=fixed;" vertex="1" parent="1">
          <mxGeometry x="680" y="340" width="80" height="80" as="geometry" />
        </mxCell>
        <mxCell id="xFAFlWkGNHVEwS1_7XCM-28" style="edgeStyle=orthogonalEdgeStyle;rounded=0;orthogonalLoop=1;jettySize=auto;html=1;entryX=0.025;entryY=0.625;entryDx=0;entryDy=0;entryPerimeter=0;" edge="1" parent="1" source="xFAFlWkGNHVEwS1_7XCM-13" target="xFAFlWkGNHVEwS1_7XCM-19">
          <mxGeometry relative="1" as="geometry" />
        </mxCell>
        <mxCell id="xFAFlWkGNHVEwS1_7XCM-13" value="店铺3&lt;br&gt;spu3" style="ellipse;whiteSpace=wrap;html=1;aspect=fixed;" vertex="1" parent="1">
          <mxGeometry x="690" y="470" width="80" height="80" as="geometry" />
        </mxCell>
        <mxCell id="xFAFlWkGNHVEwS1_7XCM-14" value="" style="endArrow=none;dashed=1;html=1;dashPattern=1 3;strokeWidth=2;rounded=0;entryX=-0.012;entryY=0.663;entryDx=0;entryDy=0;exitX=0.8;exitY=0.075;exitDx=0;exitDy=0;entryPerimeter=0;exitPerimeter=0;" edge="1" parent="1" source="xFAFlWkGNHVEwS1_7XCM-9" target="xFAFlWkGNHVEwS1_7XCM-11">
          <mxGeometry width="50" height="50" relative="1" as="geometry">
            <mxPoint x="420" y="380" as="sourcePoint" />
            <mxPoint x="520" y="380" as="targetPoint" />
          </mxGeometry>
        </mxCell>
        <mxCell id="xFAFlWkGNHVEwS1_7XCM-15" value="" style="endArrow=none;dashed=1;html=1;dashPattern=1 3;strokeWidth=2;rounded=0;entryX=-0.037;entryY=0.375;entryDx=0;entryDy=0;exitX=1;exitY=0.5;exitDx=0;exitDy=0;entryPerimeter=0;" edge="1" parent="1" source="xFAFlWkGNHVEwS1_7XCM-9" target="xFAFlWkGNHVEwS1_7XCM-12">
          <mxGeometry width="50" height="50" relative="1" as="geometry">
            <mxPoint x="430" y="390" as="sourcePoint" />
            <mxPoint x="530" y="390" as="targetPoint" />
          </mxGeometry>
        </mxCell>
        <mxCell id="xFAFlWkGNHVEwS1_7XCM-16" value="" style="endArrow=none;dashed=1;html=1;dashPattern=1 3;strokeWidth=2;rounded=0;entryX=0;entryY=0.5;entryDx=0;entryDy=0;exitX=0.775;exitY=0.925;exitDx=0;exitDy=0;exitPerimeter=0;" edge="1" parent="1" source="xFAFlWkGNHVEwS1_7XCM-9" target="xFAFlWkGNHVEwS1_7XCM-13">
          <mxGeometry width="50" height="50" relative="1" as="geometry">
            <mxPoint x="440" y="400" as="sourcePoint" />
            <mxPoint x="540" y="400" as="targetPoint" />
          </mxGeometry>
        </mxCell>
        <mxCell id="xFAFlWkGNHVEwS1_7XCM-20" style="edgeStyle=orthogonalEdgeStyle;rounded=0;orthogonalLoop=1;jettySize=auto;html=1;entryX=0.5;entryY=0;entryDx=0;entryDy=0;" edge="1" parent="1" source="xFAFlWkGNHVEwS1_7XCM-17" target="xFAFlWkGNHVEwS1_7XCM-19">
          <mxGeometry relative="1" as="geometry" />
        </mxCell>
        <mxCell id="xFAFlWkGNHVEwS1_7XCM-30" style="edgeStyle=orthogonalEdgeStyle;rounded=0;orthogonalLoop=1;jettySize=auto;html=1;entryX=0.25;entryY=0.488;entryDx=0;entryDy=0;entryPerimeter=0;" edge="1" parent="1" source="xFAFlWkGNHVEwS1_7XCM-17" target="xFAFlWkGNHVEwS1_7XCM-29">
          <mxGeometry relative="1" as="geometry" />
        </mxCell>
        <mxCell id="xFAFlWkGNHVEwS1_7XCM-17" value="下单&lt;br&gt;spu2-1" style="ellipse;whiteSpace=wrap;html=1;aspect=fixed;" vertex="1" parent="1">
          <mxGeometry x="870" y="329" width="80" height="80" as="geometry" />
        </mxCell>
        <mxCell id="xFAFlWkGNHVEwS1_7XCM-25" style="edgeStyle=orthogonalEdgeStyle;rounded=0;orthogonalLoop=1;jettySize=auto;html=1;entryX=0.5;entryY=0;entryDx=0;entryDy=0;" edge="1" parent="1" source="xFAFlWkGNHVEwS1_7XCM-19" target="xFAFlWkGNHVEwS1_7XCM-21">
          <mxGeometry relative="1" as="geometry" />
        </mxCell>
        <mxCell id="xFAFlWkGNHVEwS1_7XCM-19" value="支付&lt;br&gt;推送海典" style="ellipse;whiteSpace=wrap;html=1;aspect=fixed;" vertex="1" parent="1">
          <mxGeometry x="870" y="460" width="80" height="80" as="geometry" />
        </mxCell>
        <mxCell id="xFAFlWkGNHVEwS1_7XCM-21" value="海典转单&lt;br&gt;通知发货" style="ellipse;whiteSpace=wrap;html=1;aspect=fixed;" vertex="1" parent="1">
          <mxGeometry x="870" y="605" width="80" height="80" as="geometry" />
        </mxCell>
        <mxCell id="xFAFlWkGNHVEwS1_7XCM-22" value="" style="endArrow=none;dashed=1;html=1;dashPattern=1 3;strokeWidth=2;rounded=0;exitX=0;exitY=0.5;exitDx=0;exitDy=0;entryX=0.4;entryY=0.99;entryDx=0;entryDy=0;entryPerimeter=0;" edge="1" parent="1" source="xFAFlWkGNHVEwS1_7XCM-21" target="xFAFlWkGNHVEwS1_7XCM-1">
          <mxGeometry width="50" height="50" relative="1" as="geometry">
            <mxPoint x="690" y="560" as="sourcePoint" />
            <mxPoint x="740" y="510" as="targetPoint" />
            <Array as="points">
              <mxPoint x="150" y="640" />
            </Array>
          </mxGeometry>
        </mxCell>
        <mxCell id="xFAFlWkGNHVEwS1_7XCM-23" value="库存减少通知" style="text;html=1;align=center;verticalAlign=middle;resizable=0;points=[];autosize=1;strokeColor=#d79b00;fillColor=#ffe6cc;" vertex="1" parent="1">
          <mxGeometry x="280" y="605" width="100" height="30" as="geometry" />
        </mxCell>
        <mxCell id="xFAFlWkGNHVEwS1_7XCM-26" value="时间差" style="text;html=1;align=center;verticalAlign=middle;resizable=0;points=[];autosize=1;strokeColor=#d79b00;fillColor=#ffe6cc;" vertex="1" parent="1">
          <mxGeometry x="910" y="560" width="60" height="30" as="geometry" />
        </mxCell>
        <mxCell id="xFAFlWkGNHVEwS1_7XCM-29" value="未支付&lt;br&gt;超时取消&lt;br&gt;spu2+1" style="ellipse;whiteSpace=wrap;html=1;aspect=fixed;" vertex="1" parent="1">
          <mxGeometry x="1060" y="330" width="80" height="80" as="geometry" />
        </mxCell>
      </root>
    </mxGraphModel>
  </diagram>
</mxfile>
